Input #0, lavfi, from 'testsrc2=duration=60:size=1920x1080:rate=30':
  Duration: N/A, start: 0.000000, bitrate: N/A
  Stream #0:0: Video: rawvideo (I420 / 0x30323449), yuv420p, 1920x1080 [SAR 1:1 DAR 16:9], 30 tbr, 30 tbn, 30 tbc
Stream mapping:
  Stream #0:0 -> #0:0 (rawvideo (native) -> h264 (h264_nvenc))
Press [q] to stop, [?] for help
Output #0, mp4, to './test_results/temp_tests_gpu/test_test_50_40/output.mp4':
  Metadata:
    encoder         : Lavf58.76.100
  Stream #0:0: Video: h264 (Main) (avc1 / 0x31637661), yuv420p(tv, progressive), 1280x720 [SAR 1:1 DAR 16:9], q=2-31, 30 fps, 15360 tbn
    Metadata:
      encoder         : Lavc58.134.100 h264_nvenc
    Side data:
      cpb: bitrate max/min/avg: 3000000/0/0 buffer size: 4000000 vbv_delay: N/A
frame=    1 fps=0.0 q=0.0 size=       0kB time=00:00:00.00 bitrate=N/A speed=N/A    frame=    2 fps=0.3 q=0.0 size=       0kB time=00:00:00.00 bitrate=N/A speed=   0x    frame=  130 fps= 21 q=26.0 size=    1024kB time=00:00:04.23 bitrate=1981.6kbits/s speed=0.678x    frame=  263 fps= 39 q=26.0 size=    2304kB time=00:00:08.66 bitrate=2177.8kbits/s speed=1.28x    frame=  393 fps= 54 q=26.0 size=    3328kB time=00:00:13.00 bitrate=2097.2kbits/s speed=1.79x    frame=  531 fps= 69 q=26.0 size=    4608kB time=00:00:17.60 bitrate=2144.8kbits/s speed=2.27x    frame=  663 fps= 80 q=24.0 size=    5888kB time=00:00:22.00 bitrate=2192.5kbits/s speed=2.67x    frame=  788 fps= 90 q=26.0 size=    6912kB time=00:00:26.16 bitrate=2163.9kbits/s speed=2.99x    frame=  901 fps= 97 q=26.0 size=    7936kB time=00:00:29.93 bitrate=2171.9kbits/s speed=3.24x    frame=  998 fps=102 q=26.0 size=    8704kB time=00:00:33.16 bitrate=2149.9kbits/s speed= 3.4x    frame= 1106 fps=108 q=26.0 size=    9728kB time=00:00:36.76 bitrate=2167.5kbits/s speed=3.58x    frame= 1215 fps=113 q=26.0 size=   10752kB time=00:00:40.40 bitrate=2180.2kbits/s speed=3.76x    frame= 1333 fps=118 q=26.0 size=   11776kB time=00:00:44.33 bitrate=2176.0kbits/s speed=3.94x    frame= 1453 fps=124 q=26.0 size=   12800kB time=00:00:48.33 bitrate=2169.5kbits/s speed=4.11x    frame= 1578 fps=129 q=26.0 size=   13824kB time=00:00:52.50 bitrate=2157.1kbits/s speed=4.28x    frame= 1708 fps=134 q=26.0 size=   15104kB time=00:00:56.83 bitrate=2177.1kbits/s speed=4.45x    [mp4 @ 0x5b39073e9280] Starting second pass: moving the moov atom to the beginning of the file
frame= 1800 fps=135 q=26.0 Lsize=   15957kB time=00:00:59.96 bitrate=2179.9kbits/s speed=4.49x    
video:15949kB audio:0kB subtitle:0kB other streams:0kB global headers:0kB muxing overhead: 0.051464%
